<?xml version="1.0" standalone="no"?><!DOCTYPE svg PUBLIC "-//W3C//DTD SVG 1.1//EN" "http://www.w3.org/Graphics/SVG/1.1/DTD/svg11.dtd"><svg t="1546854427243" class="icon" style="" viewBox="0 0 1024 1024" version="1.1" xmlns="http://www.w3.org/2000/svg" p-id="1546" xmlns:xlink="http://www.w3.org/1999/xlink" width="200" height="200"><defs><style type="text/css"></style></defs><path d="M533.9 886.9c-6.1 0-12.2-1.5-17.7-4.5-1.6-0.9-3.2-1.9-4.7-3.1l-11.4-7.9c-27.2-18.9-90.9-63.2-133.1-95.8-161.9-126-244.6-216.9-260.3-286-7.5-22.8-12-50.3-12.3-78.5-1-75 27.4-147.5 77.8-198.7 45.9-46.7 106.1-72.6 169.6-72.8 71.6 0 136.7 29 183.7 79.4 46.1-52.3 111.1-82.9 181.9-83.8h4.7c135.6 0 247.4 119 249.3 265.2 0.3 28.2-3.4 55.8-11.2 82-13.2 66-95.7 161.9-251.7 289.6-59.9 49.4-108.7 86.2-145 109.2-5.9 3.8-12.7 5.7-19.6 5.7z" fill="#333333" p-id="1547"></path></svg>