<?xml version="1.0" standalone="no"?><!DOCTYPE svg PUBLIC "-//W3C//DTD SVG 1.1//EN" "http://www.w3.org/Graphics/SVG/1.1/DTD/svg11.dtd"><svg t="1547012213315" class="icon" style="" viewBox="0 0 1026 1024" version="1.1" xmlns="http://www.w3.org/2000/svg" p-id="21145" xmlns:xlink="http://www.w3.org/1999/xlink" width="200.390625" height="200"><defs><style type="text/css"></style></defs><path d="M704.512 387.072q21.504 25.6 46.08 52.224 20.48 23.552 45.568 52.224t51.712 58.368q33.792 38.912 55.808 69.632t34.816 56.32 17.408 47.104 4.608 43.008v66.56q0 30.72-10.24 55.296t-28.16 42.496-40.96 27.648-48.64 9.728H200.704q-27.648 0-52.736-9.216t-44.032-26.112-30.208-40.448-11.264-53.248v-78.848q0-24.576 4.608-47.104T83.968 665.6t33.792-52.736 54.272-61.952q26.624-28.672 54.784-57.856t50.688-52.736q26.624-27.648 51.2-53.248h375.808zM512 775.168q26.624 0 50.176-10.24t40.96-27.648 27.648-41.472 10.24-50.688-10.24-50.176-27.648-40.96-40.96-27.648T512 516.096t-50.688 10.24-41.472 27.648-27.648 40.96-10.24 50.176 10.24 50.688 27.648 41.472 41.472 27.648T512 775.168z m513.024-512v64.512q0 26.624-18.944 45.056t-45.568 18.432h-128q-26.624 0-45.056-18.432t-18.432-45.056v-64.512H256v64.512q0 26.624-18.432 45.056t-45.056 18.432h-128q-26.624 0-45.568-18.432T0 327.68v-66.56q0-12.288 6.144-20.992t15.36-15.872 20.48-12.8 22.528-12.8q11.264-6.144 50.688-27.136T214.528 128 350.72 88.064t162.304-17.408q98.304 0 175.616 17.408T822.784 128t91.136 43.52 46.592 27.136q12.288 7.168 23.552 12.8t20.48 12.8 14.848 15.872 5.632 20.992v2.048z" p-id="21146"></path></svg>