<?xml version="1.0" standalone="no"?><!DOCTYPE svg PUBLIC "-//W3C//DTD SVG 1.1//EN" "http://www.w3.org/Graphics/SVG/1.1/DTD/svg11.dtd"><svg class="icon" width="200px" height="200.00px" viewBox="0 0 1024 1024" version="1.1" xmlns="http://www.w3.org/2000/svg"><path fill="#000000" d="M877.539 798.988H595.36c-2.302 12.376-4.015 25.684-4.015 40.885 0 81.77 81.77 81.77 81.77 81.77 22.581 0 40.885 9.154 40.885 20.443 0 11.292-18.304 20.442-40.885 20.442h-327.08c-22.581 0-40.885-9.15-40.885-20.442 0-11.288 18.304-20.443 40.885-20.443 0 0 81.77 0 81.77-81.77 0-15.201-1.713-28.509-4.015-40.885H141.61c-45.162 0-81.77-36.608-81.77-81.77V144.829c0-45.162 36.608-81.77 81.77-81.77h735.929c45.161 0 81.77 36.608 81.77 81.77v572.389c0 45.162-36.608 81.77-81.77 81.77z m0-654.159H141.61v490.619h735.929V144.829z" /></svg>