<?xml version="1.0" standalone="no"?><!DOCTYPE svg PUBLIC "-//W3C//DTD SVG 1.1//EN" "http://www.w3.org/Graphics/SVG/1.1/DTD/svg11.dtd"><svg class="icon" width="200px" height="200.00px" viewBox="0 0 1024 1024" version="1.1" xmlns="http://www.w3.org/2000/svg"><path fill="#000000" d="M725.333333 149.333333a21.333333 21.333333 0 0 0-21.333333-21.333333H597.333333a203.52 203.52 0 0 0-213.333333 192v115.2H277.333333a21.333333 21.333333 0 0 0-21.333333 21.333333v110.933334a21.333333 21.333333 0 0 0 21.333333 21.333333H384v285.866667a21.333333 21.333333 0 0 0 21.333333 21.333333h128a21.333333 21.333333 0 0 0 21.333334-21.333333v-285.866667h111.786666a21.333333 21.333333 0 0 0 20.906667-15.786667l30.72-110.933333a21.333333 21.333333 0 0 0-20.48-26.88H554.666667V320a42.666667 42.666667 0 0 1 42.666666-38.4h106.666667a21.333333 21.333333 0 0 0 21.333333-21.333333z" /></svg>