<?xml version="1.0" standalone="no"?><!DOCTYPE svg PUBLIC "-//W3C//DTD SVG 1.1//EN" "http://www.w3.org/Graphics/SVG/1.1/DTD/svg11.dtd"><svg class="icon" width="200px" height="200.00px" viewBox="0 0 1024 1024" version="1.1" xmlns="http://www.w3.org/2000/svg"><path fill="#000000" d="M923.875556 732.728889c-2.275556-54.613333-25.031111-104.675556-65.991112-145.635556l-65.991111-65.991111c-20.48-20.48-54.613333-20.48-75.093333 0-20.48 20.48-20.48 54.613333 0 75.093334l65.991111 65.991111c20.48 20.48 34.133333 47.786667 34.133333 75.093333 0 18.204444-2.275556 45.511111-25.031111 68.266667-20.48 20.48-45.511111 25.031111-63.715555 25.031111-27.306667 0-56.888889-13.653333-79.644445-34.133334l-166.115555-166.115555c-40.96-40.96-45.511111-104.675556-9.102222-141.084445 20.48-20.48 20.48-54.613333 0-75.093333-20.48-20.48-54.613333-20.48-75.093334 0-38.684444 38.684444-56.888889 86.471111-56.888889 138.808889 0 54.613333 22.755556 111.502222 65.991111 154.737778l166.115556 166.115555c40.96 40.96 97.848889 65.991111 154.737778 65.991111 52.337778 0 102.4-20.48 138.808889-56.888888 40.96-40.96 61.44-95.573333 56.888889-150.186667z m0 0"  /><path fill="#000000" d="M309.475556 452.835556c-2.275556 0-2.275556 0 0 0l-45.511112-45.511112-22.755555-22.755555c-20.48-20.48-34.133333-45.511111-36.408889-72.817778 0-18.204444 2.275556-45.511111 25.031111-68.266667 20.48-20.48 45.511111-25.031111 63.715556-25.031111 27.306667 0 56.888889 11.377778 79.644444 34.133334l166.115556 166.115555c40.96 40.96 45.511111 104.675556 9.102222 141.084445-20.48 20.48-20.48 54.613333 0 75.093333 20.48 20.48 54.613333 20.48 75.093333 0 38.684444-38.684444 56.888889-86.471111 56.888889-138.808889 0-54.613333-22.755556-111.502222-65.991111-154.737778l-166.115556-166.115555c-40.96-40.96-97.848889-65.991111-154.737777-65.991111-52.337778 0-102.4 20.48-138.808889 56.888889-38.684444 38.684444-59.164444 93.297778-56.888889 147.911111 2.275556 54.613333 25.031111 104.675556 65.991111 145.635555l22.755556 22.755556 43.235555 45.511111c20.48 20.48 54.613333 20.48 75.093333 0 22.755556-20.48 25.031111-54.613333 4.551112-75.093333z m0 0"  /></svg>