<?xml version="1.0" standalone="no"?><!DOCTYPE svg PUBLIC "-//W3C//DTD SVG 1.1//EN" "http://www.w3.org/Graphics/SVG/1.1/DTD/svg11.dtd"><svg class="icon" width="200px" height="200.00px" viewBox="0 0 1024 1024" version="1.1" xmlns="http://www.w3.org/2000/svg"><path fill="#000000" d="M512.002558 0C227.562489 0 0 227.553282 0 511.998465c0 284.441091 227.561466 512.001535 512.002558 512.001535 284.446206 0 511.998465-227.561466 511.998465-512.001535 0-28.441347-18.957829-47.40736-47.409406-47.40736-28.443393 0-47.403268 18.966013-47.403268 47.40736 0 227.554305-189.634555 417.188861-417.185791 417.188861-227.555328 0-417.187837-189.634555-417.187837-417.188861 0-227.551236 189.632509-417.185791 417.187837-417.185791 75.850753 0 161.181955 18.967036 218.076925 66.370304l0 9.483518 0 0-47.409406 56.886786c-18.961921 18.966013 0 56.893947 28.441347 56.893947l218.077948 9.476357c18.959875 0 37.925888-28.443393 37.925888-47.404291L900.743933 37.926911c-9.483518-28.444416-47.409406-37.926911-66.367235-9.484541l-37.927934 56.886786C711.111424 28.44237 616.29875 0 512.002558 0L512.002558 0z" /></svg>