<?xml version="1.0" standalone="no"?><!DOCTYPE svg PUBLIC "-//W3C//DTD SVG 1.1//EN" "http://www.w3.org/Graphics/SVG/1.1/DTD/svg11.dtd"><svg class="icon" width="200px" height="200.00px" viewBox="0 0 1024 1024" version="1.1" xmlns="http://www.w3.org/2000/svg"><path fill="#000000" d="M877.2928 786.7712l-183.7184-183.8016c-2.1504-2.1504-4.512-3.744-6.752-5.5168 31.0144-47.6224 49.152-104.3584 49.152-165.472C735.9744 264.0832 599.904 128 431.9936 128 264.1408 128 128 264.0832 128 431.9808c0 167.936 136.1408 303.968 303.9936 303.968 61.0816 0 117.888-18.144 165.5808-49.2032 1.7344 2.2976 3.3408 4.6016 5.4528 6.7136l183.7632 183.8272c12.5376 12.4992 28.8768 18.72 45.2544 18.72 16.3584 0 32.7232-6.2464 45.248-18.6944C902.24 852.2688 902.24 811.7568 877.2928 786.7712M431.9936 639.9616C317.344 639.9616 224 546.6368 224 431.9488c0-114.6624 93.344-208 207.9936-208 114.6688 0 207.9808 93.3376 207.9808 208C639.9744 546.6368 546.6624 639.9616 431.9936 639.9616" /></svg>